<?xml version="1.0" standalone="no"?>
<!DOCTYPE svg PUBLIC "-//W3C//DTD SVG 20010904//EN"
 "http://www.w3.org/TR/2001/REC-SVG-20010904/DTD/svg10.dtd">
<svg version="1.0" xmlns="http://www.w3.org/2000/svg"
 width="512.000000pt" height="512.000000pt" viewBox="0 0 512.000000 512.000000"
 preserveAspectRatio="xMidYMid meet">

<g transform="translate(0.000000,512.000000) scale(0.100000,-0.100000)"
fill="#000000" stroke="none">
<path d="M2876 4739 c-79 -27 -138 -71 -181 -134 -55 -79 -65 -126 -65 -302
l0 -153 -947 0 c-522 0 -975 -4 -1008 -9 -124 -18 -231 -97 -283 -209 l-27
-57 0 -1335 0 -1335 33 -67 c40 -81 110 -148 190 -180 l57 -23 758 -3 c592 -2
758 -5 754 -15 -2 -7 -19 -72 -38 -144 l-34 -133 -238 0 c-256 0 -268 -2 -317
-55 -21 -22 -25 -37 -25 -85 0 -51 4 -63 29 -89 15 -16 40 -34 55 -40 18 -8
444 -11 1461 -9 l1435 3 56 28 c67 32 142 109 172 175 21 44 22 58 17 222 -7
285 -5 351 13 410 16 51 17 180 15 1670 l-3 1615 -32 66 c-39 79 -102 140
-181 177 l-57 27 -775 2 c-760 3 -776 2 -834 -18z m1601 -74 c89 -26 162 -98
188 -182 l6 -23 -975 0 c-664 0 -976 3 -976 10 0 23 29 79 60 114 34 39 93 74
145 87 17 4 361 7 766 8 624 1 743 -1 786 -14z m-1664 -405 c3 -11 10 -20 16
-20 6 0 11 9 11 20 0 20 7 20 855 20 l855 0 1 -22 c4 -85 3 -568 -1 -568 -3 0
-11 -12 -18 -27 -24 -54 -43 -83 -55 -84 -7 0 -33 0 -58 1 -26 1 -50 -3 -54
-9 -8 -14 -62 -14 -70 -1 -3 6 -24 10 -45 10 -21 0 -42 -4 -45 -10 -3 -5 -19
-10 -35 -10 -16 0 -32 5 -35 10 -3 6 -24 10 -45 10 -21 0 -42 -4 -45 -10 -3
-5 -19 -10 -35 -10 -16 0 -32 5 -35 10 -3 6 -24 10 -45 10 -21 0 -42 -4 -45
-10 -3 -5 -19 -10 -35 -10 -16 0 -32 5 -35 10 -3 6 -24 10 -45 10 -21 0 -42
-4 -45 -10 -3 -5 -19 -10 -35 -10 -16 0 -32 5 -35 10 -3 6 -24 10 -45 10 -21
0 -42 -4 -45 -10 -3 -5 -19 -10 -35 -10 -16 0 -32 5 -35 10 -3 6 -24 10 -45
10 -21 0 -42 -4 -45 -10 -3 -5 -19 -10 -35 -10 -16 0 -32 5 -35 10 -3 6 -24
10 -45 10 -21 0 -42 -4 -45 -10 -3 -5 -19 -10 -35 -10 -16 0 -32 5 -35 10 -3
6 -24 10 -45 10 -21 0 -42 -4 -45 -10 -3 -5 -19 -10 -35 -10 -16 0 -32 5 -35
10 -3 6 -26 10 -51 10 -24 0 -44 -4 -44 -10 0 -11 -110 -14 -146 -4 -12 3 -30
22 -40 42 -17 34 -19 66 -22 355 l-3 317 49 0 c41 0 51 -3 55 -20z m-1473
-210 c6 -12 8 -30 5 -40 -6 -19 -17 -20 -240 -20 -223 0 -234 1 -240 20 -3 10
-1 28 5 40 10 19 20 20 235 20 215 0 225 -1 235 -20z m1052 -150 l236 0 4
-137 c3 -124 6 -144 29 -193 46 -98 142 -175 251 -200 26 -6 323 -10 759 -10
l716 0 5 -37 c4 -31 3 -878 -1 -1065 l-1 -48 -80 0 -80 0 0 58 c0 84 -25 148
-80 202 -105 106 -265 106 -370 0 -55 -54 -80 -118 -80 -201 l0 -58 -153 -3
c-148 -3 -155 -4 -195 -31 -72 -47 -83 -83 -95 -302 l-10 -190 -50 4 c-27 1
-54 -2 -60 -8 -14 -14 -57 -15 -57 -1 0 13 -97 13 -105 0 -8 -13 -55 -13 -55
0 0 6 -22 10 -50 10 -27 0 -50 -4 -50 -10 0 -5 -11 -10 -24 -10 -14 0 -28 5
-31 10 -3 6 -28 10 -56 10 -27 0 -49 -4 -49 -10 0 -5 -11 -10 -24 -10 -14 0
-28 5 -31 10 -3 6 -28 10 -56 10 -27 0 -49 -4 -49 -10 0 -5 -11 -10 -24 -10
-14 0 -28 5 -31 10 -3 6 -28 10 -56 10 -27 0 -49 -4 -49 -10 0 -5 -11 -10 -24
-10 -14 0 -28 5 -31 10 -8 13 -92 13 -100 0 -3 -5 -17 -10 -30 -10 -13 0 -27
5 -30 10 -8 13 -92 13 -100 0 -3 -5 -17 -10 -30 -10 -13 0 -27 5 -30 10 -8 13
-92 13 -100 0 -8 -13 -52 -13 -60 0 -3 6 -26 10 -50 10 -24 0 -47 -4 -50 -10
-3 -5 -17 -10 -31 -10 -13 0 -24 5 -24 10 0 13 -97 13 -105 0 -3 -5 -17 -10
-31 -10 -13 0 -24 5 -24 10 0 13 -97 13 -105 0 -8 -13 -55 -13 -55 0 0 13 -97
13 -105 0 -8 -13 -55 -13 -55 0 0 6 -22 10 -50 10 -27 0 -50 -4 -50 -10 0 -5
-11 -10 -24 -10 -14 0 -28 5 -31 10 -8 13 -105 13 -105 0 0 -5 -11 -10 -24
-10 -14 0 -28 5 -31 10 -8 13 -105 13 -105 0 0 -7 -27 -10 -72 -8 l-73 3 -3
1055 c-2 705 1 1067 7 1091 15 50 44 72 104 81 29 4 365 5 747 2 382 -2 802
-4 932 -4z m-1872 -829 c0 -441 0 -450 -20 -456 -11 -3 -29 -3 -40 0 -20 6
-20 15 -20 456 l0 449 40 0 40 0 0 -449z m3495 -612 c80 -22 135 -106 135
-206 l0 -43 -185 0 -185 0 0 43 c0 97 48 175 125 202 49 17 60 18 110 4z
m-313 -465 c3 -118 5 -138 21 -148 12 -8 22 -8 35 0 13 9 18 28 20 83 l3 71
34 0 c19 0 35 5 35 10 0 6 -16 10 -35 10 l-35 0 0 55 0 55 185 0 185 0 0 -55
0 -55 -35 0 c-19 0 -35 -4 -35 -10 0 -5 16 -10 35 -10 l34 0 3 -71 c2 -55 7
-74 21 -83 12 -8 22 -8 35 0 15 10 17 30 20 148 l3 136 125 0 c142 0 184 -12
208 -58 12 -23 23 -164 51 -625 19 -328 35 -601 35 -607 0 -7 -22 -11 -60 -9
-33 1 -63 -1 -67 -4 -4 -4 -286 -7 -626 -7 l-620 1 7 137 c4 75 20 353 37 617
25 423 31 483 47 505 32 43 58 50 199 50 l132 0 3 -136z m-1094 -702 c28 -37
-2 -102 -48 -102 -27 0 -60 35 -60 63 0 59 72 85 108 39z m589 -459 c-4 -54
-7 -119 -7 -145 l0 -48 -88 0 -89 0 -36 139 c-21 77 -37 142 -37 145 0 3 59 6
132 6 l131 0 -6 -97z m1353 -108 c0 -23 -28 -86 -48 -108 -9 -11 -34 -28 -54
-38 -36 -18 -64 -19 -585 -17 l-548 3 -17 35 c-9 19 -20 59 -24 88 l-7 52 642
0 c569 0 641 -2 641 -15z m-2636 -181 c3 -9 6 -28 6 -44 0 -60 1 -60 -154 -60
-160 0 -186 9 -186 60 0 51 26 60 186 60 120 0 143 -2 148 -16z"/>
<path d="M2820 4130 c0 -27 5 -50 10 -50 6 0 10 23 10 50 0 28 -4 50 -10 50
-5 0 -10 -22 -10 -50z"/>
<path d="M3872 4088 c-8 -8 -12 -59 -12 -164 0 -147 1 -154 22 -168 19 -13 58
-16 231 -16 124 0 216 4 228 10 17 10 19 23 19 165 0 84 -3 160 -6 169 -5 14
-36 16 -238 16 -167 0 -235 -3 -244 -12z m408 -163 l0 -95 -165 0 -165 0 0 95
0 95 165 0 165 0 0 -95z"/>
<path d="M2820 3970 c0 -27 5 -50 10 -50 6 0 10 23 10 50 0 28 -4 50 -10 50
-5 0 -10 -22 -10 -50z"/>
<path d="M2820 3810 c0 -27 5 -50 10 -50 6 0 10 23 10 50 0 28 -4 50 -10 50
-5 0 -10 -22 -10 -50z"/>
<path d="M2820 3684 c0 -24 32 -74 48 -74 8 0 12 3 10 8 -38 79 -58 102 -58
66z"/>
<path d="M772 3788 c5 -15 87 -18 91 -3 1 6 -20 11 -47 13 -36 2 -47 0 -44
-10z"/>
<path d="M932 3788 c5 -15 87 -18 91 -3 1 6 -20 11 -47 13 -36 2 -47 0 -44
-10z"/>
<path d="M1092 3788 c5 -15 87 -18 91 -3 1 6 -20 11 -47 13 -36 2 -47 0 -44
-10z"/>
<path d="M1255 3790 c-3 -5 0 -13 8 -16 23 -8 82 0 82 11 0 14 -82 19 -90 5z"/>
<path d="M1412 3788 c3 -7 23 -14 46 -16 33 -2 42 0 42 12 0 12 -11 16 -46 16
-32 0 -44 -4 -42 -12z"/>
<path d="M1572 3788 c5 -15 87 -18 91 -3 1 6 -20 11 -47 13 -36 2 -47 0 -44
-10z"/>
<path d="M1727 3794 c-13 -13 5 -24 38 -24 41 0 67 9 59 21 -6 10 -87 12 -97
3z"/>
<path d="M1885 3790 c-3 -6 0 -13 8 -16 24 -9 80 0 85 14 5 15 -84 17 -93 2z"/>
<path d="M2045 3790 c-3 -6 0 -13 8 -16 24 -9 80 0 85 14 5 15 -84 17 -93 2z"/>
<path d="M2205 3790 c-3 -6 0 -13 8 -16 24 -9 80 0 85 14 5 15 -84 17 -93 2z"/>
<path d="M2363 3788 c2 -8 21 -13 47 -13 26 0 45 5 48 13 2 8 -11 12 -48 12
-37 0 -50 -4 -47 -12z"/>
<path d="M2523 3788 c2 -8 21 -13 47 -13 26 0 45 5 48 13 2 8 -11 12 -48 12
-37 0 -50 -4 -47 -12z"/>
<path d="M717 3743 c-11 -10 -8 -93 3 -93 6 0 10 23 10 50 0 51 -1 55 -13 43z"/>
<path d="M876 3614 c-21 -20 -20 -37 2 -57 16 -15 45 -17 195 -17 159 0 176
-2 181 -17 2 -10 12 -72 20 -138 22 -161 108 -791 152 -1100 41 -293 37 -285
143 -285 67 0 68 0 92 -37 40 -61 72 -78 143 -78 53 0 68 4 98 27 20 15 42 41
50 58 12 29 16 30 73 30 59 0 60 -1 83 -40 43 -75 145 -102 224 -58 106 60
114 207 15 279 -33 24 -50 29 -97 29 -68 0 -115 -26 -145 -83 -19 -36 -22 -37
-76 -37 -53 0 -57 2 -80 37 -36 55 -83 83 -140 83 -26 0 -58 -4 -71 -9 -29
-11 -78 -59 -89 -88 -7 -20 -16 -23 -59 -23 -43 0 -50 3 -55 23 -7 35 -25 176
-25 203 l0 24 520 0 520 0 9 23 c4 12 37 223 72 468 54 379 61 449 50 463 -12
14 -76 16 -661 16 l-648 0 -6 28 c-5 24 -36 246 -36 257 0 2 -7 11 -16 19 -13
14 -47 16 -219 16 -172 0 -206 -2 -219 -16z m1515 -390 l75 -7 -15 -103 -14
-104 -512 0 -512 0 -11 83 c-19 130 -20 125 41 130 94 6 872 7 948 1z m25
-306 c3 -4 0 -49 -7 -100 l-14 -93 -471 -3 -471 -2 -12 88 c-6 49 -11 94 -11
100 0 8 40 13 128 15 208 6 850 2 858 -5z m-80 -307 c-9 -10 -40 -31 -69 -47
l-52 -29 -366 -3 -366 -3 -7 32 c-15 76 -58 69 436 69 429 0 441 -1 424 -19z
m-502 -487 c27 -10 18 -54 -18 -90 -36 -36 -80 -45 -90 -18 -26 67 41 134 108
108z m454 -3 c35 -22 -45 -126 -91 -119 -18 2 -23 11 -25 44 -3 35 1 45 24 63
27 22 69 27 92 12z"/>
<path d="M710 3540 c0 -27 5 -50 10 -50 6 0 10 23 10 50 0 28 -4 50 -10 50 -5
0 -10 -22 -10 -50z"/>
<path d="M710 3380 c0 -27 5 -50 10 -50 6 0 10 23 10 50 0 28 -4 50 -10 50 -5
0 -10 -22 -10 -50z"/>
<path d="M3058 3268 c-9 -7 -18 -24 -20 -37 -2 -18 -12 -27 -34 -33 -41 -10
-100 -76 -114 -127 -22 -83 32 -184 115 -211 l35 -12 0 -99 0 -99 -63 0 c-50
0 -68 -4 -81 -19 -14 -15 -15 -24 -7 -40 9 -17 23 -21 79 -23 65 -3 67 -4 70
-30 6 -53 82 -46 82 7 0 16 8 25 25 29 35 9 96 65 111 103 17 39 18 101 3 140
-15 40 -67 91 -106 104 l-33 11 0 99 0 99 70 0 c66 0 70 1 76 25 10 41 -10 55
-82 55 -57 0 -64 2 -64 19 0 19 -24 51 -39 51 -4 0 -14 -6 -23 -12z m-18 -238
c0 -56 -4 -90 -10 -90 -6 0 -22 11 -35 25 -34 33 -34 92 0 129 13 14 29 26 35
26 6 0 10 -34 10 -90z m118 -212 c28 -31 37 -72 22 -109 -11 -26 -36 -49 -54
-49 -3 0 -6 41 -6 90 0 50 4 90 8 90 5 0 18 -10 30 -22z"/>
<path d="M710 3220 c0 -27 5 -50 10 -50 6 0 10 23 10 50 0 28 -4 50 -10 50 -5
0 -10 -22 -10 -50z"/>
<path d="M710 3060 c0 -27 5 -50 10 -50 6 0 10 23 10 50 0 28 -4 50 -10 50 -5
0 -10 -22 -10 -50z"/>
<path d="M3436 3034 c-19 -19 -20 -25 -3 -47 11 -16 33 -17 217 -15 l205 3 3
23 c7 49 -6 52 -214 52 -162 0 -195 -3 -208 -16z"/>
<path d="M710 2906 c0 -25 5 -48 10 -51 6 -4 10 13 10 44 0 28 -4 51 -10 51
-5 0 -10 -20 -10 -44z"/>
<path d="M3443 2798 c-22 -29 -23 -38 -3 -58 19 -19 32 -20 315 -20 285 0 296
1 316 21 18 18 19 23 6 42 -14 22 -19 22 -319 25 -237 2 -308 -1 -315 -10z"/>
<path d="M710 2746 c0 -25 5 -48 10 -51 6 -4 10 13 10 44 0 28 -4 51 -10 51
-5 0 -10 -20 -10 -44z"/>
<path d="M710 2586 c0 -25 5 -48 10 -51 6 -4 10 13 10 44 0 28 -4 51 -10 51
-5 0 -10 -20 -10 -44z"/>
<path d="M710 2425 c0 -25 5 -45 10 -45 6 0 10 20 10 45 0 25 -4 45 -10 45 -5
0 -10 -20 -10 -45z"/>
<path d="M710 2265 c0 -25 5 -45 10 -45 6 0 10 20 10 45 0 25 -4 45 -10 45 -5
0 -10 -20 -10 -45z"/>
<path d="M717 2153 c-11 -10 -8 -93 3 -93 6 0 10 23 10 50 0 51 -1 55 -13 43z"/>
<path d="M710 1950 c0 -27 5 -50 10 -50 6 0 10 23 10 50 0 28 -4 50 -10 50 -5
0 -10 -22 -10 -50z"/>
<path d="M710 1785 c0 -30 5 -55 10 -55 6 0 10 25 10 55 0 30 -4 55 -10 55 -5
0 -10 -25 -10 -55z"/>
<path d="M3455 1999 c-4 -12 -2 -26 4 -32 9 -9 13 -6 17 11 4 12 12 22 20 22
7 0 16 5 19 10 4 6 -6 10 -24 10 -21 0 -32 -6 -36 -21z"/>
<path d="M3580 2010 c0 -5 23 -10 50 -10 28 0 50 5 50 10 0 6 -22 10 -50 10
-27 0 -50 -4 -50 -10z"/>
<path d="M3920 2010 c0 -5 20 -10 44 -10 25 0 48 5 51 10 4 6 -13 10 -44 10
-28 0 -51 -4 -51 -10z"/>
<path d="M4250 2010 c0 -5 23 -10 50 -10 28 0 50 5 50 10 0 6 -22 10 -50 10
-27 0 -50 -4 -50 -10z"/>
<path d="M4415 2010 c3 -5 12 -10 20 -10 7 0 17 -9 20 -20 10 -30 25 -24 25
10 0 28 -3 30 -36 30 -21 0 -33 -4 -29 -10z"/>
<path d="M4465 1898 c-10 -24 -2 -81 13 -86 14 -4 16 50 2 83 -7 18 -9 18 -15
3z"/>
<path d="M3448 1859 c-4 -39 2 -55 16 -42 9 10 7 83 -3 83 -5 0 -11 -18 -13
-41z"/>
<path d="M3440 1705 c0 -25 5 -45 10 -45 6 0 10 20 10 45 0 25 -4 45 -10 45
-5 0 -10 -20 -10 -45z"/>
<path d="M4470 1706 c0 -44 12 -66 25 -46 9 15 -4 90 -16 90 -5 0 -9 -20 -9
-44z"/>
<path d="M3430 1549 c0 -31 4 -48 10 -44 6 3 10 26 10 51 0 24 -4 44 -10 44
-5 0 -10 -23 -10 -51z"/>
<path d="M4480 1556 c0 -42 12 -67 24 -48 7 12 -6 92 -15 92 -5 0 -9 -20 -9
-44z"/>
<path d="M4490 1399 c0 -32 4 -49 11 -47 6 2 10 7 10 11 -1 4 -1 25 -1 47 0
22 -4 40 -10 40 -5 0 -10 -23 -10 -51z"/>
<path d="M3420 1395 c0 -25 5 -45 10 -45 6 0 10 20 10 45 0 25 -4 45 -10 45
-5 0 -10 -20 -10 -45z"/>
<path d="M3417 1283 c-11 -10 -8 -83 3 -83 6 0 10 20 10 45 0 46 -2 50 -13 38z"/>
<path d="M4500 1246 c0 -25 5 -48 10 -51 6 -4 10 13 10 44 0 28 -4 51 -10 51
-5 0 -10 -20 -10 -44z"/>
<path d="M3406 1133 c-9 -10 -7 -83 3 -83 5 0 11 18 13 41 4 39 -2 55 -16 42z"/>
<path d="M4510 1090 c0 -27 5 -50 10 -50 6 0 10 23 10 50 0 28 -4 50 -10 50
-5 0 -10 -22 -10 -50z"/>
<path d="M3396 975 c-9 -25 -7 -85 3 -85 11 0 22 83 12 93 -5 5 -11 1 -15 -8z"/>
<path d="M4517 983 c-7 -14 5 -93 14 -93 12 0 12 87 0 95 -5 3 -11 2 -14 -2z"/>
</g>
</svg>
