<?xml version="1.0" standalone="no"?>
<!DOCTYPE svg PUBLIC "-//W3C//DTD SVG 20010904//EN"
 "http://www.w3.org/TR/2001/REC-SVG-20010904/DTD/svg10.dtd">
<svg version="1.0" xmlns="http://www.w3.org/2000/svg"
 width="512.000000pt" height="512.000000pt" viewBox="0 0 512.000000 512.000000"
 preserveAspectRatio="xMidYMid meet">

<g transform="translate(0.000000,512.000000) scale(0.100000,-0.100000)"
fill="#000000" stroke="none">
<path d="M2331 5099 c-586 -52 -1140 -311 -1562 -729 -218 -216 -363 -418
-500 -695 -434 -879 -317 -1941 299 -2715 206 -260 504 -506 802 -663 913
-483 2038 -365 2829 298 120 100 301 291 395 413 276 363 457 816 506 1266 13
126 14 435 0 557 -42 379 -172 756 -371 1076 -196 315 -496 614 -816 815 -463
291 -1029 426 -1582 377z m1405 -1906 c-3 -16 -48 -282 -101 -593 -52 -311
-97 -575 -100 -587 l-5 -23 -800 0 c-440 0 -800 2 -800 5 0 3 -67 267 -150
587 -82 321 -152 595 -156 611 l-6 27 1062 0 1062 0 -6 -27z"/>
<path d="M2524 2829 c-4 -7 -1 -15 7 -20 8 -4 147 -91 309 -192 257 -161 331
-199 306 -159 -6 10 -600 382 -610 382 -2 0 -8 -5 -12 -11z"/>
<path d="M2025 2720 c-4 -6 -5 -13 -4 -14 2 -2 188 -110 413 -241 292 -170
411 -234 419 -226 6 6 9 12 6 14 -8 8 -802 469 -815 474 -6 2 -15 -1 -19 -7z"/>
</g>
</svg>
